# xmcd
#
# Track frame offsets:
#	150
#	16293
#	32428
#	48653
#	63758
#	80778
#	99160
#	112299
#	126459
#	144420
#	160939
#	172849
#	185396
#	199910
#	217260
#
# Disc length: 3222 seconds
#
# Revision: 0
# Processed by: cddbd v1.5.1PL0 Copyright (c) Steve Scherf et al.
# Submitted via: dBpowerAMP V4.0
#
DISCID=d50c940f
DTITLE=Brendan Shine - Live As Ever
DYEAR=2004
DGENRE=Country
TTITLE0=Shine's Plan
TTITLE1=A New Moon Over Jamaica
TTITLE2=Galway Girl
TTITLE3=A Tree In The Meadow
TTITLE4=The Auctioneer
TTITLE5=Galway Waltzes
TTITLE6=I'll Tell Me Ma
TTITLE7=Alexander's Ragtime Band
TTITLE8=Shine's Country Ceili Band
TTITLE9=Back Home To My Donegal
TTITLE10=I'm Little But There's Lots Of Me To Love
TTITLE11=Abbeyshrule
TTITLE12=The Wild Colonial Boy
TTITLE13=Claremorris
TTITLE14=The Lodger
EXTD=
EXTT0=
EXTT1=
EXTT2=
EXTT3=
EXTT4=
EXTT5=
EXTT6=
EXTT7=
EXTT8=
EXTT9=
EXTT10=
EXTT11=
EXTT12=
EXTT13=
EXTT14=
PLAYORDER=
